<?xml version="1.0" encoding="utf-8"?>
<!-- Generator: Adobe Illustrator 25.4.1, SVG Export Plug-In . SVG Version: 6.00 Build 0)  -->
<!DOCTYPE svg PUBLIC "-//W3C//DTD SVG 1.1//EN" "http://www.w3.org/Graphics/SVG/1.1/DTD/svg11.dtd" [
	<!ENTITY ns_extend "http://ns.adobe.com/Extensibility/1.0/">
	<!ENTITY ns_ai "http://ns.adobe.com/AdobeIllustrator/10.0/">
	<!ENTITY ns_graphs "http://ns.adobe.com/Graphs/1.0/">
	<!ENTITY ns_vars "http://ns.adobe.com/Variables/1.0/">
	<!ENTITY ns_imrep "http://ns.adobe.com/ImageReplacement/1.0/">
	<!ENTITY ns_sfw "http://ns.adobe.com/SaveForWeb/1.0/">
	<!ENTITY ns_custom "http://ns.adobe.com/GenericCustomNamespace/1.0/">
	<!ENTITY ns_adobe_xpath "http://ns.adobe.com/XPath/1.0/">
]>
<svg version="1.1" id="Lager_1_xA0_Bild_1_" xmlns:x="&ns_extend;" xmlns:i="&ns_ai;" xmlns:graph="&ns_graphs;"
	 xmlns="http://www.w3.org/2000/svg" xmlns:xlink="http://www.w3.org/1999/xlink" x="0px" y="0px" viewBox="0 0 249.15739 237.28"
	 style="enable-background:new 0 0 249.15739 237.28;" xml:space="preserve">
<style type="text/css">
	.st0{fill:#FFFFFF;}
</style>
<metadata>
	<sfw  xmlns="&ns_sfw;">
		<slices></slices>
		<sliceSourceBounds  bottomLeftOrigin="true" height="197.75848" width="239.15739" x="131.84261" y="291.76074">
			</sliceSourceBounds>
	</sfw>
</metadata>
<g>
	<path d="M26.33457,80.73504l-1.9673,1.36713c-0.60266,0.50829-0.19807,0.80266-0.57199,1.09416
		c-2.36106,1.84058-5.14835,5.07959-5.3666,5.2386c-0.21825,0.15902-4.03206,2.93312-4.30889,3.22293
		c-0.27683,0.28982-4.45219,3.15834-7.16355,6.72221c-1.08353,1.42424-2.20979,5.37926-1.90586,7.22456
		c0.07229,0.43905,1.65033,8.5998,2.06919,11.55552c1.83975,12.9819,3.58558,25.97714,5.357,38.9688
		c0.55909,4.09981,1.09518,8.2028,1.63249,12.30557c0.06391,0.48819,0.10106,1.89499,0.23973,2.29364
		c0.13866,0.39867,0.76138,5.40311,0.96179,6.94357c0.00366,0.00107,1.33199,9.83125,2.07961,14.18318
		c2.41598,14.063,12.02307,23.6736,25.62713,25.26335c16.47379,1.92499,30.75935-3.09467,42.52641-14.76567
		c5.25074-5.20801,8.59105-11.57358,8.52531-19.18379c-0.03336-3.86954-0.68363-7.73549-1.08772-11.59962
		c-0.26682-2.55133-0.59169-5.09665-0.89059-7.64471c0.55498,0.16316,0.77161,0.48041,1.05679,0.7141
		c2.22174,1.82109,4.25032,3.99667,6.72259,5.37292c11.76324,6.54831,24.21523,8.15787,37.28968,4.65349
		c10.40002-2.78754,17.94647-8.7731,21.32585-19.22188c1.20534-3.72679,1.83321-7.64706,2.61996-11.50046
		c0.75584-3.70204,1.3761-7.43181,2.13103-11.55957c2.83804,4.74893,6.98462,7.21472,11.63643,8.96756
		c7.25912,2.73537,14.84953,3.35014,22.51266,3.34283c14.57372-0.01395,21.96429-0.25374,37.38814-0.24193
		c2.14597,0.0016,4.29192-0.04128,6.43794-0.04387c1.0005-0.00114,1.30214-0.37552,0.76682-1.27708
		c-0.15257-0.25699-0.30019-0.51697-0.45161-0.77457c-8.08353-13.75542-16.15022-27.52081-24.27846-41.24973
		c-0.77298-1.30563-0.73026-2.24931,0.07373-3.52075c8.50177-13.44518,16.94559-26.92699,25.39185-40.4072
		c0.48863-0.77991,0.86026-1.6331,1.44327-2.75372c-1.40016-0.08737-2.47626-0.24594-3.55145-0.21335
		c-23.01265,0.69743-32.27989-2.38213-44.49408-6.71611c-9.81602-3.48303-17.90634-10.45662-26.32532-16.52642
		c-8.55045-6.16456-17.91776-10.1447-28.49998-11.03133c-6.9348-0.58103-13.6311,0.2097-19.96697,3.29285
		c-5.61476,2.73224-8.80083,6.88765-9.13057,13.40122c-0.3091,6.10637-1.31676,12.17731-2.04449,18.5029
		c-0.92882-0.31421-1.57109-0.56869-2.23354-0.74975c-4.80035-1.31181-9.5623-2.8062-14.42085-3.85019
		c-4.14307-0.89028-8.40146-1.29063-12.57431,0.12812c-2.85876,0.97194-3.90931,2.4338-3.89773,5.4558
		c0.01653,4.29107,0.03504,8.58252,0.11143,12.87275c0.01927,1.08589-0.35236,1.39606-1.43696,1.50703
		c-4.1075,0.42008-8.26618,0.68584-12.27923,1.5781c-3.41457,0.75919-4.11991,0.63351-3.25218,4.83386
		c0.02003,0.09711,0.01737,0.19881,0.02902,0.2979c1.04742,8.91523,2.08928,17.83107,3.14684,26.74509
		c0.27673,2.3325,0.12119,2.59932-2.12935,3.33284c-8.36932,2.72813-16.95968,4.43458-25.66979,5.60837
		c-1.11468,0.15021-1.53971-0.26705-1.67606-1.31181c-0.7937-6.08138-1.60872-12.16002-2.43076-18.23767
		c-0.58057-4.29244-1.18361-8.58176-1.79206-12.98373c-1.60453,0-2.3763-0.05199-3.29642,0.23529 M111.40028,53.91421
		c0.57204-5.28083,1.18932-10.55671,1.81179-16.03733c1.42698,1.4416,2.11967,2.85274,1.87022,4.77414
		c-0.51857,3.99347-0.88274,8.0069-1.32186,12.0108c-0.05911,0.53868-0.18472,1.07005-0.29775,1.70767
		C111.37362,55.96129,111.19652,55.79516,111.40028,53.91421z M80.24202,52.15969c3.13411-1.63858,6.48828-1.38303,9.81694-1.04331
		c7.14952,0.72971,13.97257,2.80704,20.59164,5.48405c7.4328,3.006,14.71951,6.37296,22.14919,9.38734
		c7.69765,3.12307,15.6881,5.22355,23.98398,6.03819c5.33636,0.52398,10.56158,0.22143,15.51892-2.08822
		c0.39449-0.1838,0.82484-0.29059,1.46095-0.50989c-0.42168,2.37028-0.62743,4.61609-1.28995,6.71786
		c-0.26714,0.84724-1.4301,1.66045-2.36418,2.00717c-4.59987,1.70729-9.38628,1.62571-14.18083,1.11978
		c-10.8882-1.14888-21.06528-4.66963-30.90774-9.30195c-9.07191-4.26966-18.29084-8.15307-28.09377-10.45235
		c-4.88291-1.1453-9.7979-1.89474-14.80695-0.77031c-0.73688,0.16537-1.7376,0.61752-2.17734,0.30979
		c-0.70511-0.49336-1.18316-1.4579-1.50902-2.31741C77.62762,54.61361,78.23759,53.20773,80.24202,52.15969z M206.79254,99.44981
		c6.06842,11.22419,12.07341,22.48273,18.09378,33.73289c0.34293,0.64082,0.65149,1.3,1.09503,2.18877
		c-0.91397,0-1.54231,0-2.17064,0c-43.87813,0-45.44896-1.54657-51.14743-4.16119c-2.75471-1.2639-5.22661-2.96068-7.10626-5.35084
		c-0.51241-0.65156-0.85274-1.76266-0.7074-2.55994c3.40475-18.68243,6.81247-37.3651,10.41968-56.00899
		c0.70335-3.63524-0.33325-6.18817-2.99564-8.43536c-4.70064-3.96757-10.30093-6.13348-16.12798-7.51042
		c-6.48616-1.5327-13.09959-2.54798-19.68057-3.65154c-5.37779-0.90178-10.72139-1.89413-15.57246-4.50983
		c-1.69259-0.91268-3.26079-2.1116-4.734-3.35905c-1.3569-1.14896-1.3013-1.80654-0.11053-3.14006
		c3.07844-3.44748,7.07693-5.30353,11.45842-6.36656c12.14699-2.94704,23.63359-0.78121,34.34462,5.22264
		c5.63678,3.15956,9.54146,7.72588,14.92551,11.33461c8.79961,5.89796,19.11002,10.75318,29.26645,14.06591
		c5.16391,1.68436,18.88625,5.53696,16.63142,9.67168c-2.25481,4.13473-10.10425,17.03738-15.70811,25.16889
		C206.0757,97.07397,206.05711,98.08964,206.79254,99.44981z M168.64192,61.76975c-0.37125,2.45787-0.83528,4.90302-1.151,7.3676
		c-0.14618,1.14157-0.60396,1.70569-1.77318,1.73456c-0.97537,0.02407-1.94829,0.14883-3.05513,0.24001
		c0.78654-5.31458,1.54079-10.411,2.29488-15.50635c0.20551,0.02971,0.25966,0.0259,0.30338,0.04547
		C169.28419,57.44951,169.29417,57.45119,168.64192,61.76975z M124.58685,47.2962c-0.5731,4.3434-1.22535,8.67636-1.88735,13.23898
		c-1.48548-0.66345-2.85289-1.23298-4.17285-1.8968c-0.27947-0.14053-0.57631-0.64661-0.54302-0.94886
		c0.49922-4.53535,1.05245-9.06468,1.6254-13.86754c1.67705,0.7275,3.11408,1.26176,4.44608,1.98843
		C124.40891,46.00351,124.65022,46.81541,124.58685,47.2962z M78.21055,59.21248c1.78993,1.48312,3.31898,2.66376,4.72547,3.97565
		c0.35587,0.33195,0.42541,1.07911,0.44582,1.64194c0.05721,1.57558,0.01996,3.1546,0.23202,4.77947
		c1.03257-1.5602,0.59215-3.46111,0.94048-5.17632c2.51827,0.4916,2.89852,0.99661,2.65211,3.45928
		c-0.2685,2.68288-0.2685,2.68319-2.89082,2.68296c-1.54512-0.00015-3.09062-0.02338-4.63521,0.0061
		c-0.97011,0.01859-1.48944-0.30972-1.48007-1.37229C78.2286,66.02518,78.21055,62.84064,78.21055,59.21248z M61.90304,73.60133
		c1.96223-0.52177,3.93779-1.19671,5.93955-1.32902c6.55669-0.43318,13.12807-0.64174,19.69268-0.95953
		c1.4282-0.06908,2.85191-0.23285,4.52781-0.37415c-0.23003,1.74879-0.42305,3.21584-0.56222,4.27393
		c-7.53761,0.71349-14.85684,1.40116-22.17432,2.10658c-0.79111,0.07625-1.64277,0.09834-2.3456,0.41414
		c-2.71617,1.22041-4.12921-0.86751-5.73306-2.25373C60.36447,74.71609,60.89903,73.86831,61.90304,73.60133z M83.11585,88.07115
		c-1.78071-2.31802-4.15099-3.87534-6.77133-5.04265c-2.68303-1.19534-5.4257-2.25655-8.13821-3.38609
		c-0.52824-0.21998-1.03783-0.48452-1.55609-0.72849c0.0262-0.17741,0.05233-0.3548,0.07845-0.5322
		c8.12459-0.69887,16.24917-1.39766,24.59868-2.11579c-1.6638,12.78759-3.27808,25.19425-4.89236,37.60084
		c-0.13231-0.00031-0.26462-0.00061-0.397-0.00091c-0.31953-2.57883-0.64471-5.15698-0.95701-7.73665
		c-0.2877-2.37607-0.59923-4.75023-0.82935-7.13208c-0.18006-1.86397-0.53289-3.68864,0.12561-5.60806
		C85.02941,91.48808,84.33276,89.65542,83.11585,88.07115z M77.84386,99.4844c-0.31413-4.9389-0.62201-9.78008-0.93607-14.71928
		c1.24432,0.14305,1.77714,0.75858,1.83868,1.77729c0.21671,3.58238,0.40637,7.16636,0.61501,10.74927
		C79.42212,98.33376,79.14074,99.1318,77.84386,99.4844z M61.29428,77.37489c2.31246,0.7384,3.28417,2.00916,3.47247,4.37562
		c0.57295,7.1998,1.43459,14.37689,2.20148,21.56092c0.21396,2.0039-0.05546,2.35131-2.28451,2.57365
		C63.55815,96.41769,62.43242,86.9487,61.29428,77.37489z M28.79717,82.1022c1.41456,10.38152,2.81062,20.62676,4.22998,31.04377
		c-0.65271,0.03999-1.16739,0.07145-1.79892,0.11007c-0.54104-4.25587-1.07073-8.39537-1.59273-12.53585
		c-0.66657-5.28783-1.33542-10.57545-1.98211-15.86572C27.53304,83.87026,27.08212,82.73006,28.79717,82.1022z M14.56013,93.28891
		c0.87543,6.47252,1.75093,12.94511,2.64152,19.52892c-2.05653,0.13612-2.54212-0.24313-2.81161-1.97008
		c-0.68218-4.37105-1.29863-8.75436-2.09461-13.10477C11.93308,95.76247,13.00633,94.59226,14.56013,93.28891z M7.37839,111.25976
		c0.74099,0.20703,1.2821,0.29615,1.77257,0.50448c7.53495,3.20122,15.45699,3.42592,23.37698,2.56984
		c9.71426-1.04993,19.35182-2.72446,28.65308-5.86627c6.75938-2.28329,13.47076-4.71077,19.10396-9.31452
		c0.87345-0.71372,1.66151-1.53187,2.64183-2.44378c0.21214,1.61611,0.42982,3.02885,0.56129,4.44965
		c0.03253,0.35107-0.17069,0.75036-0.34109,1.08955c-1.19961,2.3884-3.07775,4.1471-5.28205,5.58521
		c-6.67193,4.353-14.05088,7.01744-21.68142,9.09499c-10.72573,2.92023-21.60365,4.781-32.75434,4.64778
		c-4.44897-0.05325-8.86565-0.43905-12.99021-2.37995c-0.57097-0.26873-1.23968-0.3299-2.06575-0.53822
		C8.04686,116.23118,7.72405,113.83021,7.37839,111.25976z M93.17829,182.7498c-0.31946,4.51958-1.35264,8.65755-3.55663,12.47682
		c-3.56874,6.1842-8.78886,10.6814-14.85806,14.20154c-9.29784,5.39273-19.31846,7.82996-30.10056,6.87135
		c-13.20448-1.17387-23.59566-10.50278-26.05079-23.44379c-0.03336-0.17603-0.00411-0.36386-0.00411-0.99211
		c0.4523,0.77283,0.70892,1.17317,0.9289,1.59273c4.91856,9.38397,12.92059,14.35152,23.19554,15.6017
		c15.89794,1.93443,29.67614-3.07729,41.5493-13.57565c3.40239-3.00842,5.71241-6.88391,7.6393-10.97565
		c0.25243-0.53601,0.56077-1.04575,0.84839-1.56476C92.78792,182.90884,92.8516,182.90085,93.17829,182.7498z M92.54067,177.57082
		c0.14122,1.28667-0.10246,2.69415-0.48826,3.94716c-2.15593,7.00365-6.66393,12.27504-12.45708,16.5661
		c-9.90453,7.33669-21.05972,10.92903-33.32973,10.34412c-10.99621-0.5242-20.09593-4.84087-25.61731-14.96645
		c-2.60328-4.77437-3.45434-10.05009-4.18032-15.34731c-1.66562-12.15347-3.32827-24.30733-4.98735-36.46172
		c-0.93065-6.81795-1.85392-13.63704-2.77284-20.45667c-0.06566-0.48711-0.06893-0.9826-0.11982-1.75809
		c7.99662,4.17993,16.34225,3.26604,24.56752,2.69027c13.44571-0.94109,26.31762-4.36473,38.66404-9.77284
		c4.53397-1.98607,8.619-4.57747,11.92648-8.85597c0.36242,2.93546,0.69102,5.51734,0.9986,8.10165
		c1.5557,13.07369,3.10517,26.14807,4.65829,39.22206C90.46182,159.73761,91.56135,168.64766,92.54067,177.57082z
		 M154.21248,161.75041c-4.80568,7.11487-11.71671,10.9234-19.95988,12.55885c-11.35246,2.25237-22.25552,0.88144-32.51913-4.51257
		c-2.52711-1.32811-4.81718-3.18889-7.0099-5.0482c-2.11381-1.79237-3.28379-4.20972-3.47635-7.05759
		c-0.1138-1.68367-0.37925-3.35715-0.59421-5.18585c2.09157,2.15274,3.85873,4.3284,5.97444,6.08376
		c6.87569,5.70441,14.97437,8.60027,23.73894,9.77168c8.01086,1.07066,15.82154,0.39571,23.29762-2.89485
		c5.84068-2.57076,10.42638-6.56271,13.65936-12.08318c0.15067-0.25729,0.31032-0.51035,0.48346-0.75272
		c0.04965-0.06947,0.16139-0.0946,0.39973-0.2247C157.51591,155.88695,156.11812,158.92912,154.21248,161.75041z
		 M160.51277,141.1951c-1.21317,6.54259-3.50316,12.56639-8.3,17.40201c-4.95047,4.99046-11.1279,7.4213-17.90793,8.55266
		c-12.76664,2.13049-24.45273-0.64258-35.14594-7.84253c-3.11058-2.09438-5.69055-4.72981-7.59711-7.93483
		c-0.79339-1.33391-1.39072-2.91559-1.59227-4.44836c-1.04635-7.9577-2.26013-15.9157-2.75958-23.91452
		c-0.3011-4.82213,0.41803-9.73955,0.98786-14.57775c1.13113-9.6048,2.47082-19.18508,3.73601-28.77396
		c0.35861-2.71792,0.74655-5.43203,1.14881-8.14378c0.07175-0.48338,0.16338-1.03714,0.44674-1.40246
		c0.98313-1.26756,0.54218-2.01737-0.71181-2.7132c-3.31228-1.838-6.59919-3.72245-9.87445-5.62573
		c-0.69566-0.40424-1.29916-0.96698-1.94517-1.45668c0.07373-0.14389,0.14747-0.28777,0.2212-0.43158
		c3.31578-0.84686,6.6823-0.85204,10.04781-0.37857c9.97469,1.40329,19.27976,4.95809,28.36173,9.11488
		c7.93423,3.63143,15.85231,7.26827,24.34572,9.43768c5.61674,1.43468,11.29556,2.69271,17.11232,2.4824
		c3.59389-0.12994,7.16408-0.91496,10.85469-1.42096c-0.29036,1.70271-0.61302,3.74531-0.98938,5.77792
		C167.47736,103.66448,163.99217,122.42926,160.51277,141.1951z M230.34163,62.72383c0,0-33.45863-7.57235-38.13857-9.65232
		c-4.67992-2.07996-16.92638-10.07979-24.68961-15.32969c-9.22456-6.23814-19.28441-9.71944-30.44537-9.6697
		c-7.00313,0.03115-13.69395,1.38143-19.41725,5.80184c-1.13692,0.87809-2.19996,1.85186-3.38746,2.85807
		c-0.88609-1.52646-0.70306-3.02999-0.30743-4.5173c0.66093-2.48476,2.33334-4.25573,4.29305-5.78173
		c5.20496-4.05296,11.31232-5.20253,17.69564-5.4826c11.18961-0.49092,22.60472,6.25021,29.39223,10.14282
		c6.2756,3.59904,20.71297,13.5891,24.50891,15.25307c4.38628,1.92275,24.70074,9.6116,27.14354,9.74117
		c2.44278,0.12957,7.65436-0.79327,7.65436-0.79327l15.39473,0.00526h2.48048l-1.043,1.80303
		c0,0-16.69087,26.61781-25.10231,39.8849c-1.03676,1.63531-1.15193,2.91017-0.13072,4.62888
		c7.89569,13.28712,15.6993,26.62892,23.52742,39.95619c0.29089,0.49518,0.54089,1.01428,0.94931,1.7852
		c-1.05229,0-1.78741,0.00279-2.52254,0c-33.80885-0.12834-64.86334-3.86342-66.43343-4.66772
		c-2.09532-1.07336-4.14276-2.53748-5.66899-4.2923c-3.12437-3.59235-2.76599-3.81819-1.76709-7.82401
		c0.39275,0.27216,0.78357,0.4737,1.08894,0.76498c5.44749,5.19529,12.19963,7.32738,19.43994,8.39156
		c6.19702,0.91069,12.40324,2.04967,18.64778,1.64925c0.59673-0.03824,23.1377-1.08101,23.95918-1.13007
		c-0.34047-0.78471-0.54903-1.37617-0.84129-1.92285c-6.25163-11.69157-12.49434-23.38802-18.7986-35.05126
		c-0.67206-1.24348-0.55902-2.12554,0.21327-3.25599c7.03413-10.29597,14.01874-20.62569,21.00488-30.95442
		c0.43257-0.63961,1.3-2.34095,1.3-2.34095"/>
	<path class="st0" d="M228.86522,63.53534c-1.84483,2.74509-3.52083,5.26044-5.21848,7.76107
		c-5.54709,8.1706-11.07639,16.3535-16.68027,24.48499c-0.89075,1.29257-0.90932,2.30825-0.17387,3.66843
		c6.06842,11.22417,12.07338,22.48268,18.09373,33.73287c0.34296,0.64085,0.65154,1.30003,1.09503,2.18878
		c-0.91397,0-1.54225,0-2.17061,0c-43.87813,0.00002-26.21736,0.24828-33.19012-0.00525
		c-6.21005-0.22583-12.25885-1.54135-17.95735-4.15593c-2.7547-1.26392-5.22658-2.96071-7.10622-5.35084
		c-0.51244-0.65163-0.85274-1.76268-0.70744-2.56c3.40479-18.68238,6.8125-37.36506,10.41968-56.00898
		c0.70335-3.63523-0.33324-6.18818-2.99561-8.43535c-4.70065-3.96759-10.30096-6.13347-16.12799-7.51041
		c-6.48618-1.53269-13.09961-2.54795-19.6806-3.65155c-5.37772-0.90181-10.72138-1.8941-15.57243-4.50985
		c-1.69257-0.91266-3.26079-2.1116-4.73399-3.35905c-1.35686-1.14893-1.30131-1.80647-0.11049-3.14004
		c3.07842-3.44743,7.07693-5.30349,11.45842-6.36652c12.14693-2.94705,23.63358-0.78125,34.34457,5.22259
		c5.63683,3.1596,10.33875,7.50924,15.72281,11.11797c8.79961,5.89801,18.37378,9.82571,28.53018,13.13844
		C211.26805,61.48105,228.05069,63.53534,228.86522,63.53534z M140.91205,104.57137
		c0.20013,0.01324,0.40031,0.02649,0.60049,0.03973"/>
	<path class="st0" d="M195.63501,55.11681c-13.64818-5.48785-24.32933-14.81048-28.12155-17.37497
		c-9.22459-6.23815-19.28439-9.71948-30.44534-9.66976c-7.00316,0.03119-13.69394,1.38149-19.41728,5.80191
		c-1.13689,0.87808-2.19993,1.85179-3.38746,2.85806c-0.88612-1.5265-0.70305-3.03003-0.30745-4.51728
		c0.66093-2.48477,2.33333-4.25576,4.29305-5.78174c5.20498-4.05295,11.31234-5.20254,17.69567-5.48261
		c11.18959-0.49094,21.18631,2.9784,30.43536,9.03784c8.42535,5.51979,14.17526,11.0888,23.56976,15.63005
		c5.40791,3.25861,21.16486,7.56204,23.5036,8.00786c2.33876,0.44582,11.19029,1.66798,11.19029,1.66798l15.39476,0.00526l2.48044,0
		c0,0-0.73563,1.31368-1.04297,1.80302c-8.35526,13.30265-16.69086,26.61785-25.10228,39.88494
		c-1.03682,1.63531-1.15196,2.91019-0.13071,4.62885c7.89565,13.28716,16.87254,28.53932,24.70067,41.86655
		c0.29088,0.49515-23.52615,0.0582-46.43745-0.00179c-7.88295-0.02065-15.66994-0.92799-22.74251-4.79109
		c-2.06615-1.12856-4.14272-2.53743-5.66898-4.29227c-3.12437-3.59238-2.76598-3.81819-1.76704-7.82397
		c0.39267,0.27214,0.78354,0.4737,1.08888,0.76493c5.44754,5.19529,12.19962,7.32743,19.43997,8.39155
		c6.19699,0.91075,41.78549,0.5683,42.60696,0.51924c-0.34047-0.78477-0.54901-1.37624-0.84129-1.9229
		c-6.25163-11.69156-12.49432-23.38804-18.79857-35.05123c-0.67212-1.24349-0.55908-2.12559,0.21323-3.25601
		c7.0341-10.29594,14.01874-20.62572,21.00487-30.95438c0.4326-0.63965,1.29999-2.34102,1.29999-2.34102
		S209.92656,60.86337,195.63501,55.11681z"/>
	<path class="st0" d="M91.57407,59.30148c6.70298,0.52419,18.97265,5.16242,28.05463,9.31919
		c7.93424,3.63147,15.85229,7.26826,24.34571,9.43771c5.61671,1.43465,11.29553,2.6927,17.11232,2.48239
		c3.59386-0.12994,7.16403-0.91496,10.85471-1.42094c-0.29042,1.70271-0.61307,3.74527-0.98943,5.7779
		c-3.47469,18.76672-6.95984,37.53151-10.43927,56.29736c-1.21312,6.54263-3.50314,12.56639-8.3,17.40202
		c-4.95049,4.99049-11.12787,7.42126-17.90788,8.55269c-12.76667,2.13045-24.45274-0.64261-35.14596-7.84253
		c-3.1106-2.09439-5.69053-4.72983-7.59708-7.93489c-0.79343-1.33385-1.3907-2.91557-1.59227-4.44833
		c-1.0464-7.95766-2.26018-15.9157-2.75961-23.91455c-0.30107-4.82211,0.41806-9.73952,0.98785-14.57771
		c1.13115-9.6048,2.47085-19.18512,3.73607-28.77401c0.3586-2.71786,0.74651-5.43203,1.1488-8.14376
		c0.07172-0.48336,0.16334-1.03709,0.44675-1.40246c0.98313-1.26752,0.54218-2.01736-0.71184-2.7132
		c-3.31227-1.83796-6.59915-3.72243-9.87446-5.62569c-0.69565-0.40425-2.48874-1.5245-3.13471-2.01423
		C79.88213,59.61457,84.87109,58.77729,91.57407,59.30148z M118.35686,125.22388c-3.85501,0.03114-7.61494,0.87601-11.27277,2.32436
		c-4.86382,1.92589-7.72565,5.45914-8.76377,10.53996c-1.06742,5.22414,1.76144,9.17296,7.05595,9.6347
		c1.72013,0.15002,3.47909-0.05646,5.21413-0.18375c4.54223-0.33322,8.96196-1.67288,13.59782-1.38176
		c4.1418,0.26009,7.86719,1.08701,11.10526,4.00854c3.88681,3.50685,9.24123,1.48192,10.29294-3.6364
		c0.72966-3.55106-0.14081-6.73863-2.59622-9.2646c-2.21078-2.27431-4.66895-4.36554-7.25342-6.20708
		C130.59259,127.39245,124.83987,125.29309,118.35686,125.22388z M108.12878,99.44142
		c4.44611-0.2903,7.94992-2.38898,10.58955-5.87144c0.9056-1.19477,1.60536-2.65072,2.00652-4.0963
		c0.51382-1.85155-0.52222-2.86817-2.37738-2.39278c-5.51896,1.41423-9.99731,4.3492-12.88501,9.39029
		c-0.81542,1.42352-0.14559,2.68246,1.47469,2.96041C107.32355,99.49789,107.73101,99.44142,108.12878,99.44142z
		 M138.81978,96.11244c0.42229,3.26483,1.73898,6.6976,4.78481,9.09649c1.51083,1.18992,3.37743,2.11578,5.23047,2.63521
		c2.23384,0.62614,3.07451-0.40375,2.52901-2.71374c-1.23372-5.22445-4.72116-8.78736-8.99504-11.63876
		C140.13412,92.0006,138.78778,92.89021,138.81978,96.11244z M136.50134,111.12099
		c-0.32927,0.14558-0.67633,0.38415-1.05409,0.45213c-2.33398,0.41998-3.97687,1.60797-5.33463,3.65063
		c-1.74551,2.62601-3.97536,2.50533-6.25987,0.2923c-1.6649-1.61279-3.47037-3.09686-5.3201-4.49701
		c-1.3616-1.03065-1.44462-1.21245-0.25617-2.4417c0.26234-0.27134,0.26059-0.798,0.38042-1.2071
		c-0.24509-0.10897-0.4902-0.21795-0.73531-0.32692c-0.5805,0.84241-1.42838,1.61359-1.67635,2.54456
		c-0.33812,1.26951,0.84778,1.87634,1.77128,2.47975c0.08344,0.05451,0.17358,0.10121,0.24889,0.16531
		c1.34811,1.14748,2.88435,2.13818,4.00453,3.47687c3.01696,3.60545,6.81234,3.56396,9.33202-0.41406
		c0.86252-1.36178,1.9292-1.97955,3.40695-2.35966c1.04236-0.2681,2.68465-0.81565,2.7975-1.45953
		c0.16013-0.9136-0.82158-2.04036-1.35863-3.05306c-0.11958-0.22552-0.41933-0.35552-0.70354-0.58363
		C134.77098,109.28458,136.48015,109.88702,136.50134,111.12099z M99.77586,91.59058
		c5.3054-6.74684,12.22617-8.2158,20.00359-7.97878c-0.34284-0.46322-0.73988-0.8177-1.166-0.85701
		c-5.17098-0.4772-10.08678,0.43041-14.44307,3.30804c-1.66154,1.09755-2.97177,2.74445-4.36319,4.21562
		C99.58391,90.51451,99.77586,91.14332,99.77586,91.59058z M157.80602,99.39504c0.38918-4.42419-8.46983-11.41289-14.65256-11.5705
		c0.29459,0.48988,0.67484,0.91321,1.14734,1.15951c2.71408,1.41475,5.55167,2.62311,8.14629,4.22678
		c2.05879,1.27251,3.89659,2.95059,4.59946,5.48035C157.10739,98.91013,157.42917,99.0566,157.80602,99.39504z M132.19412,109.15074
		c0.08499-0.18874,0.17-0.37749,0.255-0.56622c-2.98712-3.11189-3.16339-7.12471-3.63997-11.14651
		c-0.41446,0.33602-0.71806,0.69925-0.72508,1.06812c-0.02069,1.09076,0.01698,2.1903,0.13821,3.27452
		c0.28664,2.56347,1.05318,4.96182,2.79109,6.93584C131.25705,108.99323,131.79329,109.01235,132.19412,109.15074z
		 M95.23058,145.08542c-0.21065,3.83147,2.43808,6.26814,6.13358,5.87323c-0.78609-1.60062-2.76274-0.98758-3.6049-2.09166
		C96.9101,147.75375,96.19342,146.53951,95.23058,145.08542z M146.67305,151.59557
		c-0.29079,0.22809-0.56833,0.33563-0.65024,0.52695c-0.93243,2.17729-2.83649,2.59419-4.89392,2.74995
		c-0.24759,0.01875-0.53413-0.03535-0.7326,0.07278c-0.22017,0.11998-0.40907,0.3676-0.50412,0.60304
		c-0.0276,0.06836,0.29366,0.37936,0.48846,0.42052C143.50941,156.62997,147.16431,154.30138,146.67305,151.59557z
		 M113.73381,103.2901c0.05514-0.16355,0.11029-0.3271,0.16544-0.49065c-0.34436-0.15237-0.71632-0.47619-1.02801-0.42596
		c-1.06699,0.17194-2.12508,0.43554-3.15851,0.75495c-0.27386,0.08464-0.44701,0.49511-0.6664,0.75596
		c0.32659,0.12096,0.68478,0.39574,0.97427,0.33622C111.26933,103.96385,112.49791,103.60915,113.73381,103.2901z
		 M142.1017,106.22248c-0.47304,0.77723,0.88164,2.62354,2.80821,3.82738
		C145.12152,109.22105,144.17688,107.93356,142.1017,106.22248z"/>
	<path class="st0" d="M8.58801,119.43794c7.99655,4.17995,16.34222,3.26605,24.56747,2.69032
		c13.44572-0.94115,26.31767-4.36473,38.66405-9.77289c4.53395-1.98603,8.619-4.57743,11.92647-8.85596
		c0.36242,2.93548,0.69105,5.51732,0.99858,8.10168c1.5557,13.07367,3.10521,26.14807,4.65828,39.22203
		c1.05896,8.91449,2.15845,17.82451,3.13778,26.74768c0.14122,1.28671-0.10246,2.6942-0.48821,3.9472
		c-2.15594,7.00362-6.66398,12.27498-12.45708,16.56606c-9.9046,7.33667-21.05978,10.92906-33.32977,10.3441
		c-10.99624-0.52419-20.09595-4.84085-25.61726-14.96643c-2.60335-4.77432-3.4544-10.05009-4.18038-15.34731
		c-1.66562-12.15346-3.32826-24.3073-4.98732-36.46165c-0.93066-6.81802-1.85387-13.63708-2.77285-20.4567
		C8.64213,120.70898,8.6389,120.21348,8.58801,119.43794z M40.67302,150.66829c-0.24129-0.52286-0.55046-1.66574-1.21068-2.54506
		c-3.67936-4.90028-8.47068-8.40771-14.10593-10.73514c-0.7529-0.31096-2.10982-0.33418-2.56384,0.12523
		c-0.4871,0.49287-0.51665,1.80003-0.26616,2.60204c1.87023,5.98804,5.5812,10.51732,11.1706,13.41617
		c0.9044,0.46904,1.9735,0.75304,2.99133,0.84386C38.94816,154.57698,40.65012,153.17078,40.67302,150.66829z M53.27314,196.8662
		c0.65802-0.03488,1.50726-0.05284,2.35077-0.13202c0.89278-0.0838,1.79163-0.16989,2.66802-0.35094
		c11.53139-2.38206,18.49607-9.75356,22.26341-20.53461c0.41715-1.19377,0.53007-2.54916,0.51794-3.82707
		c-0.03341-3.51996-2.79371-5.68208-6.17476-4.67062c-1.66771,0.49893-3.2476,1.47958-4.68913,2.49507
		c-1.53969,1.08463-2.81568,2.53529-4.2999,3.70836c-7.74236,6.11928-15.88283,8.06174-25.07783,2.93958
		c-2.51598-1.40154-5.65659-1.82552-8.57468-2.31844c-2.58175-0.4361-4.0703,1.32574-3.63801,3.91345
		c0.19527,1.16887,0.50126,2.34796,0.95449,3.44049C33.43279,190.83202,42.82355,196.93616,53.27314,196.8662z M57.56602,145.68665
		c-0.06874,2.42003,1.06374,3.38591,2.78969,2.77855c1.39038-0.48923,2.80165-1.13065,3.96439-2.01802
		c4.64113-3.54199,7.00327-8.48907,7.99737-14.09012c0.17281-0.97362-0.47991-2.47801-1.25955-3.09314
		c-0.47194-0.37234-2.14625,0.22543-2.89458,0.84975c-3.99081,3.32933-7.1532,7.36172-9.38162,12.0714
		C58.17154,143.47469,57.83533,144.89392,57.56602,145.68665z M39.31042,158.33122
		c-0.32016-0.18097-0.82027-0.50177-0.84296-0.47096c-0.71942,0.97682-1.66066,1.90602-1.999,3.01599
		c-0.35518,1.16518,0.85085,1.59465,1.78651,1.744c2.21311,0.35332,3.80866,1.48155,5.10774,3.2982
		c2.19679,3.07198,5.34135,3.13141,8.01094,0.47403c1.75498-1.74696,3.687-3.32893,5.63241-4.86766
		c1.60295-1.26785,1.63124-2.92896-0.13313-3.9446c-0.30259-0.17418-0.77473-0.05382-1.16854-0.0695
		c0.13874,0.32654,0.19912,0.72905,0.42952,0.96674c1.12535,1.16092,0.98958,1.47006-0.3227,2.46217
		c-1.76688,1.33574-3.5257,2.74248-5.01757,4.36705c-2.06257,2.24605-4.58249,2.58058-6.29683,0.05565
		c-1.57071-2.31343-3.4513-3.59528-6.12123-3.94711c-0.28248-0.03722-0.54515-0.22476-0.95995-0.40451
		C38.02023,160.15573,38.58839,159.35226,39.31042,158.33122z M16.27419,131.28329c0.07365,0.26627,0.14731,0.53253,0.22096,0.79878
		c0.8629-0.18448,1.7185-0.41928,2.58985-0.54539c6.06067-0.87717,11.31565,0.68518,15.63231,5.15112
		c0.43969,0.4549,1.12328,0.67406,1.69369,1.00262c-0.28798-0.63361-0.43365-1.4019-0.88602-1.87993
		c-4.40034-4.64986-9.91914-6.19164-16.13506-5.54114C18.32761,130.38054,17.31159,130.9341,16.27419,131.28329z M71.12033,120.9229
		c-0.04291-0.12754-0.08582-0.25508-0.12874-0.38263c-4.62363-0.31859-14.35939,6.78484-15.16039,11.32095
		c1.53204-1.40367,2.8314-3.04843,4.36659-4.4314c1.61637-1.45609,3.36292-2.82222,5.2289-3.93095
		C67.20643,122.44138,69.2133,121.76617,71.12033,120.9229z M42.96503,158.16199c0.19273,0.02559,0.38545,0.05116,0.57819,0.07677
		c2.92628-3.16678,3.5052-7.077,3.38186-11.19966c-0.00541-0.18088-0.29341-0.51828-0.39404-0.49855
		c-0.24271,0.04761-0.54896,0.21664-0.65031,0.42426c-0.12031,0.24643-0.06419,0.5845-0.06495,0.88292
		c-0.00843,3.31192-0.60905,6.44095-2.68661,9.15578C42.92257,157.27342,43.01264,157.77039,42.96503,158.16199z
		 M76.72847,162.60544c0.56234,0.08293,1.12928,0.25917,1.6862,0.23177c1.90435-0.09364,3.54678,0.31387,4.70583,1.99356
		c0.22637,0.32806,0.69272,0.49054,1.04836,0.72939c-0.03344-0.48349,0.08593-1.05072-0.1256-1.4366
		C82.8436,161.93501,79.5814,161.13103,76.72847,162.60544z M28.82842,170.65363c-2.66217,0.04091-4.5459,2.27806-4.28981,5.36699
		C26.02046,174.16667,27.41063,172.42741,28.82842,170.65363z"/>
	<path class="st0" d="M173.76366,69.42788c-0.42168,2.37029-0.62741,4.61607-1.28999,6.71784
		c-0.26711,0.84727-1.43004,1.66042-2.36417,2.00715c-4.59982,1.7073-9.38623,1.62575-14.1808,1.11985
		c-10.88821-1.1489-21.06529-4.66967-30.90774-9.30196c-9.07195-4.26968-18.29089-8.15306-28.09377-10.45237
		c-4.88294-1.14531-9.79794-1.89473-14.80698-0.77033c-0.73682,0.1654-1.73754,0.61752-2.17733,0.3098
		c-0.70508-0.49335-1.18318-1.45794-1.50902-2.31745c-0.80621-2.12677-0.1963-3.5327,1.80816-4.58068
		c3.13415-1.63863,6.48829-1.38306,9.81696-1.04331c7.14948,0.72971,13.97254,2.80704,20.59163,5.48399
		c7.43281,3.00604,14.71954,6.37303,22.14919,9.38735c7.69766,3.12308,15.68811,5.22355,23.98401,6.03819
		c5.33629,0.52402,10.56157,0.22148,15.51892-2.08817C172.69719,69.75398,173.12752,69.64716,173.76366,69.42788z"/>
	<path class="st0" d="M8.37328,118.65849c-0.32641-2.42734-0.64926-4.82827-0.99492-7.39877
		c0.74102,0.20704,1.28213,0.29618,1.77259,0.50455c7.53495,3.20119,15.45702,3.42587,23.37702,2.56982
		c9.71423-1.04998,19.35176-2.7245,28.65302-5.86633c6.75943-2.28323,13.47076-4.71071,19.10401-9.31446
		c0.87339-0.71375,1.66149-1.53188,2.64177-2.44384c0.21219,1.61613,0.42987,3.02892,0.56136,4.44967
		c0.03249,0.35107-0.17075,0.75034-0.3411,1.08955c-1.19958,2.38846-3.07774,4.14709-5.28204,5.58523
		c-6.67199,4.35298-14.05089,7.01748-21.68145,9.09499c-10.72575,2.92023-21.60365,4.78104-32.7543,4.64776
		c-4.44903-0.05319-8.8657-0.43902-12.99022-2.37994C9.86801,118.92799,9.19934,118.86683,8.37328,118.65849z"/>
	<path class="st0" d="M93.17831,182.7498c-0.3195,4.51961-1.35268,8.65758-3.55666,12.47681
		c-3.56873,6.1842-8.78881,10.68138-14.85807,14.20155c-9.29783,5.3927-19.31843,7.82994-30.10049,6.87138
		c-13.20451-1.17392-23.59574-10.50281-26.0508-23.44379c-0.03339-0.17603-0.00417-0.36391-0.00417-0.99214
		c0.45233,0.77284,0.70897,1.17317,0.9289,1.59274c4.91859,9.38393,12.92062,14.3515,23.19556,15.60172
		c15.89793,1.93443,29.67617-3.07732,41.54933-13.5757c3.4024-3.00844,5.71236-6.88387,7.63928-10.97563
		c0.2524-0.53598,0.56075-1.04573,0.8484-1.56476C92.78793,182.90884,92.85162,182.90083,93.17831,182.7498z"/>
	<path class="st0" d="M90.65302,152.50505c2.09156,2.15277,3.85868,4.32837,5.97445,6.08374
		c6.87564,5.70444,14.97437,8.60028,23.73891,9.77171c8.01089,1.07068,15.82156,0.39571,23.29763-2.8949
		c5.84068-2.57076,10.42639-6.56265,13.65935-12.08315c0.15068-0.25728,0.31033-0.51031,0.48346-0.75272
		c0.04964-0.06949,0.16139-0.0946,0.39972-0.22473c-0.69064,3.48193-2.08839,6.52415-3.99402,9.34541
		c-4.80568,7.11481-11.71674,10.92339-19.95993,12.55884c-11.35249,2.25238-22.25551,0.88142-32.5191-4.5126
		c-2.52708-1.32812-4.81721-3.18886-7.00988-5.04814c-2.11381-1.79239-3.28382-4.20975-3.47636-7.05762
		C91.13338,156.0072,90.86798,154.33374,90.65302,152.50505z"/>
	<path class="st0" d="M66.72868,78.38169c8.12459-0.69881,16.24919-1.39762,24.59869-2.11578
		c-1.66384,12.78762-3.2781,25.19424-4.89237,37.60087c-0.13233-0.00031-0.26467-0.00063-0.397-0.00093
		c-0.31956-2.57882-0.64472-5.15695-0.95703-7.73664c-0.28767-2.37609-0.59925-4.75021-0.82933-7.13206
		c-0.18005-1.86398-0.53291-3.68866,0.1256-5.60803c0.65219-1.90101-0.04446-3.73367-1.26142-5.31792
		c-1.78065-2.31804-4.15095-3.87537-6.77127-5.04272c-2.68304-1.1953-5.42573-2.25648-8.13826-3.38608
		c-0.52821-0.21995-1.03785-0.48451-1.55605-0.7285C66.67639,78.73649,66.70254,78.55909,66.72868,78.38169z"/>
	<path class="st0" d="M92.06306,70.93867c-0.23003,1.74877-0.42302,3.21582-0.56219,4.27386
		c-7.53763,0.71354-14.85683,1.40122-22.17432,2.10658c-0.79109,0.07626-1.64273,0.09836-2.3456,0.41418
		c-2.71612,1.22042-4.1292-0.86751-5.73307-2.25374c-0.88337-0.76348-0.34885-1.61122,0.65517-1.87823
		c1.96222-0.5218,3.93783-1.19673,5.93956-1.32899c6.55669-0.4332,13.12804-0.6418,19.69266-0.95952
		C88.96349,71.24368,90.38717,71.07993,92.06306,70.93867z"/>
	<path class="st0" d="M119.60905,43.822c1.67702,0.72749,3.11405,1.26172,4.44605,1.98845
		c0.35383,0.19305,0.59515,1.00498,0.53172,1.48573c-0.57305,4.34341-1.22536,8.67635-1.88731,13.23903
		c-1.48549-0.66344-2.85289-1.23298-4.17286-1.89679c-0.27946-0.14055-0.57632-0.64668-0.54306-0.94891
		C118.48282,53.1542,119.03605,48.62486,119.60905,43.822z"/>
	<path class="st0" d="M61.29426,77.37493c2.31247,0.73836,3.28418,2.00909,3.4725,4.37557
		c0.57294,7.19982,1.43462,14.37688,2.20149,21.56093c0.21391,2.00388-0.0555,2.35129-2.28454,2.57364
		C63.55818,96.41772,62.43244,86.94867,61.29426,77.37493z"/>
	<path class="st0" d="M162.66261,71.11192c0.78651-5.31455,1.54079-10.72728,2.29486-15.8226
		c0.20552,0.02964,0.25966,0.02586,0.30338,0.04542c4.02332,1.79849,4.03336,1.80013,3.38104,6.11869
		c-0.37125,2.45793-0.83527,4.90306-1.15096,7.3676c-0.14621,1.14157-0.60397,2.02198-1.77319,2.05086
		C164.74232,70.89597,163.76939,71.02078,162.66261,71.11192z"/>
	<path class="st0" d="M78.21053,59.21246C80.19907,61.28,85.03757,63.6621,86.07407,64.53
		c0.83334,0.69778,1.37878,0.89983,1.13237,3.36252c-0.26846,2.68288-0.26846,2.68314-2.89085,2.68292
		c-1.5451-0.00013-3.09062-0.02334-4.63515,0.00614c-0.97012,0.01852-1.48948-0.30975-1.48006-1.37234
		C78.22861,66.02515,78.21053,62.84064,78.21053,59.21246z"/>
	<path class="st0" d="M28.7972,82.10217c1.41457,10.38155,2.81056,20.62679,4.22996,31.04383
		c-0.65273,0.03992-1.16742,0.07141-1.79892,0.11004c-0.54103-4.25587-1.07077-8.39537-1.59272-12.53588
		c-0.66658-5.28783-1.33546-10.57541-1.98217-15.86568C27.53305,83.87025,27.0821,82.73005,28.7972,82.10217z"/>
	<path class="st0" d="M17.20162,112.81786c-2.0565,0.13607-2.54206-0.24318-2.81159-1.97012
		c-0.68216-4.37106-1.29862-8.75436-2.0946-13.10474c-0.36238-1.98055,0.71086-3.15076,2.26467-4.4541
		C15.43558,99.76146,16.31108,106.23401,17.20162,112.81786z"/>
	<path class="st0" d="M113.46267,56.3695c-2.08909-0.40817-2.26612-0.57434-2.06236-2.4553
		c0.57203-5.28082,1.18929-10.55673,1.81173-16.03732c1.42698,1.44162,2.11967,2.85276,1.87022,4.77411
		c-0.51854,3.99347-0.8827,8.00689-1.32182,12.01084C113.70135,55.2005,113.57572,55.73186,113.46267,56.3695z"/>
	<path class="st0" d="M77.84383,99.48439c-0.31409-4.93889-0.62196-9.7801-0.93606-14.7193
		c1.24433,0.1431,1.77715,0.75859,1.83875,1.77731c0.21669,3.58237,0.40635,7.16637,0.61494,10.74924
		C79.42213,98.33373,79.14071,99.1318,77.84383,99.48439z"/>
	<path d="M118.35686,125.22388c6.48301,0.06921,12.23573,2.16857,17.3799,5.83398c2.58447,1.84154,5.04263,3.93277,7.25342,6.20708
		c2.45541,2.52597,3.32588,5.71355,2.59622,9.2646c-1.05171,5.11832-6.40613,7.14325-10.29294,3.6364
		c-3.23807-2.92154-6.96346-3.74846-11.10526-4.00854c-4.63586-0.29112-9.05559,1.04854-13.59782,1.38176
		c-1.73504,0.12729-3.494,0.33377-5.21413,0.18375c-5.2945-0.46175-8.12337-4.41057-7.05595-9.6347
		c1.03812-5.08083,3.89995-8.61407,8.76377-10.53996C110.74192,126.09988,114.50185,125.25501,118.35686,125.22388z
		 M144.7442,144.37706c0.03918-2.66086-0.97583-4.91685-2.84967-6.69615c-1.98346-1.88342-4.0343-3.73363-6.25056-5.32742
		c-8.77314-6.30909-18.20476-7.90569-28.38859-3.69547c-4.92536,2.03624-7.45475,5.79596-8.05836,10.95491
		c-0.37939,3.24263,1.48682,5.96352,4.66438,6.70483c1.38624,0.32343,2.8793,0.46954,4.29208,0.34261
		c3.32357-0.29868,6.62465-0.83873,9.94094-1.22929c6.5058-0.76622,12.72498-0.71205,18.14172,4.03343
		c3.29337,2.88524,7.50096,1.01695,8.33383-3.30443C144.6825,145.57623,144.68874,144.97191,144.7442,144.37706z"/>
	<path d="M108.12878,99.44142c-0.39777,0-0.80524,0.05647-1.19164-0.00983c-1.62028-0.27795-2.29011-1.5369-1.47469-2.96041
		c2.8877-5.04109,7.36605-7.97606,12.88501-9.39029c1.85516-0.47539,2.8912,0.54123,2.37738,2.39278
		c-0.40115,1.44558-1.10091,2.90153-2.00652,4.0963C116.0787,97.05244,112.57489,99.15112,108.12878,99.44142z"/>
	<path d="M138.81978,96.11244c-0.032-3.22224,1.31435-4.11184,3.54924-2.6208c4.27388,2.85139,7.76132,6.41431,8.99504,11.63876
		c0.5455,2.30999-0.29517,3.33988-2.52901,2.71374c-1.85304-0.51942-3.71964-1.44529-5.23047-2.63521
		C140.55876,102.81004,139.24207,99.37727,138.81978,96.11244z"/>
	<path d="M136.50134,111.12099c-0.02119-1.23398-1.73036-1.83642-0.75708-3.28112c0.28421,0.2281,0.58395,0.3581,0.70354,0.58363
		c0.53705,1.0127,1.51875,2.13946,1.35863,3.05306c-0.11285,0.64388-1.75514,1.19142-2.7975,1.45953
		c-1.47775,0.38011-2.54443,0.99788-3.40695,2.35966c-2.51968,3.97803-6.31506,4.01951-9.33202,0.41406
		c-1.12019-1.33868-2.65643-2.32939-4.00453-3.47687c-0.07532-0.0641-0.16546-0.1108-0.24889-0.16531
		c-0.9235-0.60341-2.1094-1.21024-1.77128-2.47975c0.24796-0.93098,1.09585-1.70216,1.67635-2.54456
		c0.24511,0.10897,0.49022,0.21795,0.73531,0.32692c-0.11983,0.4091-0.11808,0.93576-0.38042,1.2071
		c-1.18845,1.22926-1.10543,1.41105,0.25617,2.4417c1.84973,1.40015,3.6552,2.88422,5.3201,4.49701
		c2.28452,2.21303,4.51436,2.33372,6.25987-0.2923c1.35776-2.04266,3.00064-3.23064,5.33463-3.65063
		C135.82501,111.50514,136.17207,111.26658,136.50134,111.12099z"/>
	<path d="M99.77586,91.59058c0-0.44726-0.19195-1.07607,0.03133-1.31213c1.39142-1.47117,2.70165-3.11807,4.36319-4.21562
		c4.35629-2.87762,9.27209-3.78523,14.44307-3.30804c0.42612,0.03931,0.82316,0.39379,1.166,0.85701
		C112.00202,83.37478,105.08126,84.84373,99.77586,91.59058z"/>
	<path d="M157.80602,99.39504c-0.37685-0.33844-0.69862-0.48491-0.75948-0.70386c-0.70287-2.52976-2.54066-4.20785-4.59946-5.48035
		c-2.59462-1.60368-5.43221-2.81203-8.14629-4.22678c-0.4725-0.2463-0.85275-0.66962-1.14734-1.15951
		C149.33618,87.98215,158.19519,94.97085,157.80602,99.39504z"/>
	<path d="M132.19412,109.15074c-0.40083-0.13839-0.93707-0.15752-1.18074-0.43427c-1.73792-1.97401-2.50446-4.37237-2.79109-6.93584
		c-0.12123-1.08422-0.15891-2.18376-0.13821-3.27452c0.00702-0.36887,0.31062-0.73209,0.72508-1.06812
		c0.47658,4.0218,0.65285,8.03462,3.63997,11.14651C132.36412,108.77325,132.27911,108.962,132.19412,109.15074z"/>
	<path d="M95.23058,145.08542c0.96284,1.45409,1.67953,2.66833,2.52868,3.78157c0.84216,1.10408,2.81881,0.49104,3.6049,2.09166
		C97.66866,151.35356,95.01993,148.91689,95.23058,145.08542z"/>
	<path d="M146.67305,151.59557c0.49126,2.70581-3.16364,5.03441-6.29242,4.37325c-0.19481-0.04115-0.51607-0.35216-0.48846-0.42052
		c0.09505-0.23544,0.28395-0.48306,0.50412-0.60304c0.19847-0.10814,0.48502-0.05403,0.7326-0.07278
		c2.05743-0.15576,3.96149-0.57266,4.89392-2.74995C146.10472,151.9312,146.38226,151.82365,146.67305,151.59557z"/>
	<path d="M113.73381,103.2901c-1.2359,0.31905-2.46449,0.67375-3.7132,0.93051c-0.28948,0.05952-0.64767-0.21526-0.97427-0.33622
		c0.21939-0.26085,0.39253-0.67132,0.6664-0.75596c1.03342-0.31941,2.09152-0.58301,3.15851-0.75495
		c0.31169-0.05022,0.68365,0.2736,1.02801,0.42596C113.8441,102.963,113.78895,103.12655,113.73381,103.2901z"/>
	<path d="M142.1017,106.22248c2.07518,1.71107,3.01982,2.99857,2.80821,3.82738
		C142.98334,108.84602,141.62866,106.99971,142.1017,106.22248z"/>
	<path d="M40.67302,150.66829c-0.0229,2.50249-1.72486,3.90869-3.98468,3.70709c-1.01783-0.09082-2.08693-0.37482-2.99133-0.84386
		c-5.58941-2.89885-9.30037-7.42813-11.1706-13.41617c-0.25048-0.802-0.22094-2.10916,0.26616-2.60204
		c0.45402-0.45941,1.81094-0.43619,2.56384-0.12523c5.63524,2.32742,10.42657,5.83485,14.10593,10.73514
		C40.12256,149.00255,40.43173,150.14543,40.67302,150.66829z"/>
	<path d="M53.27314,196.8662c-10.44958,0.06996-19.84035-6.03418-23.69967-15.33675
		c-0.45324-1.09253-0.75923-2.27162-0.95449-3.44049c-0.43229-2.58771,1.05626-4.34955,3.63801-3.91345
		c2.91809,0.49292,6.0587,0.9169,8.57468,2.31844c9.195,5.12216,17.33547,3.1797,25.07783-2.93958
		c1.48421-1.17307,2.76021-2.62373,4.2999-3.70836c1.44153-1.01549,3.02142-1.99614,4.68913-2.49507
		c3.38105-1.01146,6.14135,1.15067,6.17476,4.67062c0.01213,1.27791-0.10078,2.6333-0.51794,3.82707
		c-3.76734,10.78105-10.73202,18.15254-22.26341,20.53461c-0.87638,0.18105-1.77524,0.26714-2.66802,0.35094
		C54.7804,196.81335,53.93116,196.83131,53.27314,196.8662z M53.54859,195.75346c1.29014-0.09624,2.6024-0.07304,3.86695-0.30739
		c11.31389-2.09656,18.25896-9.12914,21.97365-19.69308c0.43489-1.23672,0.52168-2.64012,0.53977-3.96936
		c0.03164-2.32384-1.52735-3.68861-3.84133-3.53093c-2.03329,0.13852-3.67997,1.10661-5.19746,2.39825
		c-2.16167,1.83995-4.24834,3.79881-6.5726,5.41042c-4.71339,3.26813-9.90508,5.26424-15.75114,4.24178
		c-2.31817-0.40546-4.52623-1.44028-6.78454-2.18823c-3.00652-0.99582-5.96174-2.21866-9.03627-2.91373
		c-2.37711-0.5374-3.53916,0.99457-3.01467,3.40619c0.15791,0.72615,0.39647,1.44305,0.6742,2.13361
		C34.13123,190.00488,42.92299,195.67299,53.54859,195.75346z"/>
	<path d="M57.56602,145.68665c0.26931-0.79272,0.60551-2.21196,1.21569-3.50159c2.22842-4.70967,5.39081-8.74207,9.38162-12.0714
		c0.74834-0.62431,2.42265-1.22209,2.89458-0.84975c0.77964,0.61513,1.43237,2.11952,1.25955,3.09314
		c-0.99409,5.60104-3.35624,10.54813-7.99737,14.09012c-1.16275,0.88737-2.57402,1.52879-3.96439,2.01802
		C58.62976,149.07256,57.49729,148.10667,57.56602,145.68665z"/>
	<path d="M39.31042,158.33122c-0.72203,1.02104-1.2902,1.82451-1.89479,2.67949c0.41481,0.17975,0.67747,0.36729,0.95995,0.40451
		c2.66994,0.35184,4.55053,1.63368,6.12123,3.94711c1.71434,2.52493,4.23426,2.1904,6.29683-0.05565
		c1.49187-1.62457,3.25069-3.03131,5.01757-4.36705c1.31228-0.99211,1.44804-1.30125,0.3227-2.46217
		c-0.2304-0.23769-0.29078-0.6402-0.42952-0.96674c0.39382,0.01569,0.86596-0.10468,1.16854,0.0695
		c1.76437,1.01564,1.73608,2.67674,0.13313,3.9446c-1.94541,1.53873-3.87743,3.1207-5.63241,4.86766
		c-2.66959,2.65738-5.81415,2.59795-8.01094-0.47403c-1.29908-1.81665-2.89463-2.94489-5.10774-3.2982
		c-0.93567-0.14935-2.14169-0.57883-1.78651-1.744c0.33834-1.10997,1.27958-2.03917,1.999-3.01599
		C38.49016,157.82945,38.99027,158.15025,39.31042,158.33122z"/>
	<path d="M16.27419,131.28329c1.03741-0.3492,2.05342-0.90276,3.11574-1.01393c6.21592-0.6505,11.73472,0.89128,16.13506,5.54114
		c0.45237,0.47803,0.59804,1.24632,0.88602,1.87993c-0.57041-0.32857-1.254-0.54773-1.69369-1.00262
		c-4.31667-4.46594-9.57164-6.02829-15.63231-5.15112c-0.87135,0.12611-1.72695,0.36092-2.58985,0.54539
		C16.42149,131.81583,16.34784,131.54956,16.27419,131.28329z"/>
	<path d="M71.12033,120.9229c-1.90703,0.84326-3.9139,1.51848-5.69364,2.57597c-1.86598,1.10873-3.61253,2.47487-5.2289,3.93095
		c-1.53519,1.38297-2.83456,3.02773-4.36659,4.4314c0.80101-4.5361,10.53676-11.63953,15.16039-11.32095
		C71.03451,120.66782,71.07742,120.79536,71.12033,120.9229z"/>
	<path d="M42.96503,158.16199c0.04761-0.3916-0.04246-0.88857,0.16413-1.15849c2.07756-2.71483,2.67818-5.84386,2.68661-9.15578
		c0.00076-0.29842-0.05536-0.63649,0.06495-0.88292c0.10136-0.20761,0.4076-0.37665,0.65031-0.42426
		c0.10063-0.01973,0.38863,0.31767,0.39404,0.49855c0.12334,4.12267-0.45557,8.03288-3.38186,11.19966
		C43.35048,158.21315,43.15776,158.18758,42.96503,158.16199z"/>
	<path d="M76.72847,162.60544c2.85293-1.47441,6.11513-0.67043,7.31479,1.51811c0.21152,0.38588,0.09216,0.95311,0.1256,1.4366
		c-0.35564-0.23885-0.82199-0.40132-1.04836-0.72939c-1.15904-1.67969-2.80148-2.0872-4.70583-1.99356
		C77.85775,162.86461,77.29081,162.68837,76.72847,162.60544z"/>
	<path d="M28.82842,170.65363c-1.41779,1.77379-2.80796,3.51305-4.28981,5.36699
		C24.28251,172.93169,26.16625,170.69453,28.82842,170.65363z"/>
	<path class="st0" d="M144.7442,144.37706c-0.05547,0.59485-0.06171,1.19917-0.17422,1.78302
		c-0.83287,4.32138-5.04047,6.18967-8.33383,3.30443c-5.41675-4.74548-11.63593-4.79965-18.14172-4.03343
		c-3.31629,0.39056-6.61737,0.93062-9.94094,1.22929c-1.41279,0.12694-2.90585-0.01918-4.29208-0.34261
		c-3.17756-0.74132-5.04377-3.4622-4.66438-6.70483c0.60361-5.15895,3.133-8.91867,8.05836-10.95491
		c10.18383-4.21022,19.61545-2.61362,28.38859,3.69547c2.21626,1.5938,4.26711,3.444,6.25056,5.32742
		C143.76837,139.46021,144.78339,141.7162,144.7442,144.37706z"/>
	<path class="st0" d="M53.54859,195.75346c-10.6256-0.08047-19.41736-5.74858-23.14344-15.01248
		c-0.27773-0.69055-0.51629-1.40746-0.6742-2.13361c-0.5245-2.41162,0.63756-3.94359,3.01467-3.40619
		c3.07452,0.69507,6.02975,1.91791,9.03627,2.91373c2.25831,0.74796,4.46637,1.78278,6.78454,2.18823
		c5.84606,1.02246,11.03775-0.97365,15.75114-4.24178c2.32426-1.6116,4.41093-3.57047,6.5726-5.41042
		c1.51749-1.29164,3.16418-2.25974,5.19746-2.39825c2.31398-0.15768,3.87297,1.20709,3.84133,3.53093
		c-0.0181,1.32924-0.10488,2.73264-0.53977,3.96936c-3.71469,10.56395-10.65976,17.59653-21.97365,19.69308
		C56.15099,195.68042,54.83873,195.65723,53.54859,195.75346z"/>
</g>
</svg>
